<svg width="120" height="120" viewBox="0 0 120 120" fill="none" xmlns="http://www.w3.org/2000/svg">
<path d="M60 110C66.5673 110.008 73.0715 108.719 79.1388 106.205C85.2062 103.692 90.7171 100.005 95.355 95.355C100.005 90.7171 103.692 85.2062 106.205 79.1388C108.719 73.0715 110.008 66.5673 110 60C110.008 53.4328 108.719 46.9286 106.205 40.8613C103.692 34.7939 100.005 29.283 95.355 24.645C90.7171 19.9954 85.2062 16.3081 79.1388 13.7948C73.0715 11.2816 66.5673 9.99194 60 10C53.4328 9.99194 46.9286 11.2816 40.8613 13.7948C34.7939 16.3081 29.283 19.9954 24.645 24.645C19.9954 29.283 16.3081 34.7939 13.7948 40.8613C11.2816 46.9286 9.99194 53.4328 10 60C9.99194 66.5673 11.2816 73.0715 13.7948 79.1388C16.3081 85.2062 19.9954 90.7171 24.645 95.355C29.283 100.005 34.7939 103.692 40.8613 106.205C46.9286 108.719 53.4328 110.008 60 110Z" stroke="#3B82F6" stroke-width="5" stroke-linejoin="round"/>
<path fill-rule="evenodd" clip-rule="evenodd" d="M60 92.5C61.6576 92.5 63.2473 91.8415 64.4194 90.6694C65.5915 89.4973 66.25 87.9076 66.25 86.25C66.25 84.5924 65.5915 83.0027 64.4194 81.8306C63.2473 80.6585 61.6576 80 60 80C58.3424 80 56.7527 80.6585 55.5806 81.8306C54.4085 83.0027 53.75 84.5924 53.75 86.25C53.75 87.9076 54.4085 89.4973 55.5806 90.6694C56.7527 91.8415 58.3424 92.5 60 92.5Z" fill="#3B82F6"/>
<path d="M60 30V70" stroke="#3B82F6" stroke-width="5" stroke-linecap="round" stroke-linejoin="round"/>
</svg>
